<svg xmlns="http://www.w3.org/2000/svg" viewBox="0 0 512 512">
  <defs>
    <linearGradient id="g" x1="0" y1="0" x2="1" y2="1">
      <stop offset="0%" stop-color="#4c1d95"/>
      <stop offset="55%" stop-color="#9333ea"/>
      <stop offset="100%" stop-color="#ec4899"/>
    </linearGradient>
  </defs>
  <!-- Rounded square background -->
  <rect width="512" height="512" rx="115" fill="url(#g)"/>
  <!-- Swimmer head -->
  <circle cx="256" cy="118" r="52" fill="white"/>
  <!-- Wave 1 -->
  <path d="M48 218 Q128 168 208 218 Q288 268 368 218 Q428 182 468 202"
        stroke="white" stroke-width="28" fill="none" stroke-linecap="round" opacity="0.95"/>
  <!-- Wave 2 -->
  <path d="M48 308 Q128 258 208 308 Q288 358 368 308 Q428 272 468 292"
        stroke="white" stroke-width="24" fill="none" stroke-linecap="round" opacity="0.65"/>
  <!-- Wave 3 -->
  <path d="M48 392 Q128 342 208 392 Q288 442 368 392 Q428 356 468 376"
        stroke="white" stroke-width="20" fill="none" stroke-linecap="round" opacity="0.35"/>
  <!-- Splash droplets -->
  <circle cx="400" cy="170" r="13" fill="white" opacity="0.65"/>
  <circle cx="432" cy="142" r="9"  fill="white" opacity="0.45"/>
  <circle cx="416" cy="116" r="6"  fill="white" opacity="0.30"/>
</svg>
